<?xml version="1.0" encoding="UTF-8" standalone="no"?>
<!-- Created with Inkscape (http://www.inkscape.org/) -->

<svg
   width="100mm"
   height="120mm"
   viewBox="0 0 100 120"
   version="1.1"
   id="svg10989"
   inkscape:version="1.1.1 (3bf5ae0d25, 2021-09-20)"
   sodipodi:docname="avoFavicon.svg"
   xmlns:inkscape="http://www.inkscape.org/namespaces/inkscape"
   xmlns:sodipodi="http://sodipodi.sourceforge.net/DTD/sodipodi-0.dtd"
   xmlns="http://www.w3.org/2000/svg"
   xmlns:svg="http://www.w3.org/2000/svg">
  <sodipodi:namedview
     id="namedview10991"
     pagecolor="#505050"
     bordercolor="#eeeeee"
     borderopacity="1"
     inkscape:pageshadow="0"
     inkscape:pageopacity="0"
     inkscape:pagecheckerboard="0"
     inkscape:document-units="mm"
     showgrid="false"
     inkscape:zoom="0.54929737"
     inkscape:cx="935.74087"
     inkscape:cy="452.39612"
     inkscape:window-width="1525"
     inkscape:window-height="835"
     inkscape:window-x="1964"
     inkscape:window-y="26"
     inkscape:window-maximized="0"
     inkscape:current-layer="layer2" />
  <defs
     id="defs10986">
    <inkscape:path-effect
       effect="spiro"
       id="path-effect17157"
       is_visible="true"
       lpeversion="1" />
    <inkscape:path-effect
       effect="spiro"
       id="path-effect11317"
       is_visible="true"
       lpeversion="1" />
    <inkscape:path-effect
       effect="spiro"
       id="path-effect11313"
       is_visible="true"
       lpeversion="1" />
    <inkscape:path-effect
       effect="spiro"
       id="path-effect11309"
       is_visible="true"
       lpeversion="1" />
    <inkscape:path-effect
       effect="spiro"
       id="path-effect11182"
       is_visible="true"
       lpeversion="1" />
    <inkscape:path-effect
       effect="spiro"
       id="path-effect11123"
       is_visible="true"
       lpeversion="1" />
    <inkscape:path-effect
       effect="spiro"
       id="path-effect11085"
       is_visible="true"
       lpeversion="1" />
  </defs>
  <g
     inkscape:label="Layer 1"
     inkscape:groupmode="layer"
     id="layer1">
    <path
       style="fill:none;stroke:#583404;stroke-width:3;stroke-linecap:butt;stroke-linejoin:miter;stroke-miterlimit:4;stroke-dasharray:none;stroke-opacity:1"
       d="M 42.869158,6.2617875 49.793087,13.32336"
       id="path17155"
       inkscape:path-effect="#path-effect17157"
       inkscape:original-d="m 42.869158,6.2617875 c 2.30824,2.3541218 4.616219,4.7079795 6.923929,7.0615725" />
  </g>
  <g
     inkscape:groupmode="layer"
     id="layer2"
     inkscape:label="Layer 2">
    <path
       style="fill:none;stroke:#000000;stroke-width:0.215713px;stroke-linecap:butt;stroke-linejoin:miter;stroke-opacity:1"
       d="m 49.793087,13.32336 v 96.21846"
       id="path11083"
       inkscape:path-effect="#path-effect11085"
       inkscape:original-d="m 49.793087,13.32336 c 2.7e-4,32.072996 2.7e-4,64.145814 0,96.21846" />
    <path
       style="fill:none;stroke:#000000;stroke-width:0.215713px;stroke-linecap:butt;stroke-linejoin:miter;stroke-opacity:1"
       d="m 49.672987,13.32336 v 96.21846"
       id="path11083-4"
       inkscape:path-effect="#path-effect11317"
       inkscape:original-d="m 49.672987,13.32336 c -2.7e-4,32.072996 -2.7e-4,64.145814 0,96.21846" />
    <path
       style="fill:none;stroke:#000000;stroke-width:2.5;stroke-linecap:butt;stroke-linejoin:miter;stroke-miterlimit:4;stroke-dasharray:none;stroke-opacity:1"
       d="m 49.672987,13.32336 c -2.648803,-0.09748 -5.32262,0.692513 -7.49313,2.213877 -2.663487,1.866904 -4.46816,4.697523 -6.13073,7.493119 -5.831519,9.805646 -10.783927,20.110065 -16.51892,29.972476 -4.135642,7.112022 -8.788402,14.30375 -9.7069995,22.479359 -0.5726899,5.096999 0.3876545,10.333559 2.5779395,14.971449 2.190284,4.63789 5.589289,8.675933 9.68353,11.76536 5.591466,4.2192 12.441136,6.65539 19.41399,7.32282 2.716497,0.26002 5.457823,0.26002 8.17432,0"
       id="path11121-1"
       inkscape:path-effect="#path-effect11309"
       inkscape:original-d="m 49.672987,13.32336 c -2.49797,0.738224 -4.99568,1.476182 -7.49313,2.213877 -2.49744,0.737695 -4.08741,4.995677 -6.13073,7.493119 -2.04331,2.497442 -11.01288,19.981915 -16.51892,29.972476 -5.50604,9.990563 -6.4716,14.986505 -9.7069995,22.479359 -3.2354,7.492853 8.1740495,17.824803 12.2614695,26.736809 4.08742,8.912 12.9424,4.88214 19.41399,7.32282 6.4716,2.44067 5.44928,2.6e-4 8.17432,0" />
    <path
       style="fill:none;stroke:#000000;stroke-width:1;stroke-linecap:butt;stroke-linejoin:miter;stroke-miterlimit:4;stroke-dasharray:none;stroke-opacity:1"
       d="m 49.733037,58.403208 c -2.13802,-0.373429 -4.381778,-0.119419 -6.38221,0.722513 -2.615282,1.100707 -4.75322,3.166368 -6.258414,5.571705 -1.505195,2.405338 -2.413738,5.141933 -3.013846,7.915222 -0.700654,3.237946 -0.997257,6.585122 -0.6021,9.874356 0.508714,4.234467 2.275898,8.453094 5.53928,11.19897 2.956448,2.487615 7.038134,3.581298 10.8423,2.90518"
       id="path11180-0"
       inkscape:path-effect="#path-effect11313"
       inkscape:original-d="m 49.733037,58.403208 c -2.12767,0.241101 -4.25507,0.481941 -6.38221,0.722513 -2.12714,0.240573 -6.18177,8.99155 -9.27226,13.486927 -3.09049,4.495376 -0.40166,6.583166 -0.6021,9.874356 -0.20043,3.29119 3.69259,7.46624 5.53928,11.19897 1.84669,3.73272 7.22793,1.93705 10.8423,2.90518" />
    <path
       style="fill:#79eb68;fill-opacity:1;stroke:#552200;stroke-width:0.910254;stroke-linecap:round;stroke-miterlimit:4;stroke-dasharray:none"
       d="m 49.973377,102.80793 -5.3e-4,-5.50939 1.50574,0.07706 c 1.98909,0.101793 4.63329,-0.472485 6.63107,-1.440159 2.45114,-1.18727 5.23244,-4.050919 6.51216,-6.70497 3.15564,-6.544538 2.7792,-15.737671 -0.95609,-23.349021 -1.02638,-2.091426 -1.54467,-2.823811 -3.06814,-4.335513 -2.70195,-2.681063 -5.40413,-3.856696 -8.87766,-3.862382 l -1.74607,-0.0029 V 36.130303 14.579911 l 1.14398,0.137382 c 3.13977,0.377061 6.06842,2.010588 8.0292,4.478483 2.12515,2.674779 4.79742,7.264223 11.54046,19.819975 4.9238,9.168259 6.85272,12.643694 10.22569,18.424104 5.61251,9.618416 7.41609,14.704644 7.4299,20.952904 0.007,3.288787 -0.42966,5.92269 -1.45823,8.790585 -3.12553,8.714698 -10.46367,15.677006 -20.03448,19.008386 -4.20528,1.46377 -6.53163,1.85073 -11.99955,1.99601 l -4.87697,0.12958 -5.3e-4,-5.50939 z"
       id="path11589" />
    <path
       style="fill:#25ba10;fill-opacity:1;stroke:#552200;stroke-width:0.910254;stroke-linecap:round;stroke-miterlimit:4;stroke-dasharray:none"
       d="m 40.581197,108.08387 c -3.677007,-0.41751 -8.943033,-2.00319 -12.382828,-3.72865 -6.106019,-3.0629 -11.438154,-8.300764 -14.293688,-14.040982 -1.918409,-3.856394 -2.791267,-7.597177 -2.781708,-11.921479 0.01447,-6.552263 1.713196,-11.129637 8.401505,-22.638768 1.808962,-3.112831 5.620896,-9.994776 8.470964,-15.293213 9.86409,-18.33789 11.774657,-21.390364 14.767306,-23.593428 1.48518,-1.093327 3.615925,-1.91353 5.585469,-2.150057 l 1.14399,-0.137382 v 21.550392 21.550391 l -1.74608,0.0029 c -3.473527,0.0057 -6.175714,1.181319 -8.877654,3.862382 -1.523474,1.5117 -2.041766,2.244087 -3.06814,4.33551 -3.735293,7.611353 -4.111734,16.804484 -0.956099,23.349024 1.279729,2.654051 4.061026,5.517697 6.512166,6.70497 1.997779,0.967674 4.641974,1.541949 6.631067,1.440156 l 1.50575,-0.07706 -5.3e-4,5.479054 -5.3e-4,5.47907 -4.034038,-0.0385 C 43.2394,108.197 41.044763,108.1366 40.58115,108.08394 Z"
       id="path14773" />
    <path
       style="fill:#ae770f;fill-opacity:1;stroke:#552200;stroke-width:0.910254;stroke-linecap:round;stroke-miterlimit:4;stroke-dasharray:none"
       d="m 50.274927,96.055268 c -0.23718,-0.0957 -0.30105,-4.051713 -0.30105,-18.645931 V 58.884885 h 1.51485 c 3.36822,0 5.96291,1.21554 8.59906,4.028432 2.85019,3.041282 4.69984,7.927951 5.30966,14.027824 0.96194,9.622155 -3.5132,17.337622 -10.96807,18.909742 -1.65763,0.34957 -3.56241,0.443277 -4.15445,0.204385 z"
       id="path14923" />
    <path
       style="fill:#775516;fill-opacity:1;stroke:#552200;stroke-width:0.910254;stroke-linecap:round;stroke-miterlimit:4;stroke-dasharray:none"
       d="M 44.916281,95.837473 C 37.571535,94.246939 33.112753,86.502627 34.063915,76.988345 35.187409,65.750232 40.463783,58.884885 47.977354,58.884885 h 1.514853 v 18.518756 c 0,20.775029 0.19548,18.827432 -1.886195,18.79198 -0.618358,-0.01053 -1.828737,-0.171696 -2.689731,-0.358148 z"
       id="path15369" />
    <path
       style="fill:none;stroke:#000000;stroke-width:2.5;stroke-linecap:butt;stroke-linejoin:miter;stroke-miterlimit:4;stroke-dasharray:none;stroke-opacity:1"
       d="m 49.793087,13.32336 c 2.648803,-0.09748 5.32262,0.692513 7.49313,2.213877 2.663487,1.866904 4.46816,4.697523 6.13073,7.493119 5.831519,9.805646 10.783927,20.110065 16.51892,29.972476 4.135642,7.112022 8.788403,14.30375 9.707,22.479359 0.57269,5.096999 -0.387655,10.333559 -2.577939,14.971449 -2.190285,4.63789 -5.58929,8.675933 -9.683531,11.76536 -5.591466,4.2192 -12.441136,6.65539 -19.41399,7.32282 -2.716497,0.26002 -5.457823,0.26002 -8.17432,0"
       id="path11121"
       inkscape:path-effect="#path-effect11123"
       inkscape:original-d="m 49.793087,13.32336 c 2.49797,0.738224 4.99568,1.476182 7.49313,2.213877 2.49744,0.737695 4.08741,4.995677 6.13073,7.493119 2.04331,2.497442 11.01288,19.981915 16.51892,29.972476 5.50604,9.990563 6.4716,14.986505 9.707,22.479359 3.2354,7.492853 -8.17405,17.824803 -12.26147,26.736809 -4.08742,8.912 -12.9424,4.88214 -19.41399,7.32282 -6.4716,2.44067 -5.44928,2.6e-4 -8.17432,0" />
    <path
       style="fill:none;stroke:#000000;stroke-width:1;stroke-linecap:butt;stroke-linejoin:miter;stroke-miterlimit:4;stroke-dasharray:none;stroke-opacity:1"
       d="m 49.733037,58.403208 c 2.13802,-0.373429 4.381778,-0.119419 6.38221,0.722513 2.615282,1.100707 4.75322,3.166368 6.258414,5.571705 1.505195,2.405338 2.413738,5.141933 3.013846,7.915222 0.700654,3.237946 0.997257,6.585122 0.6021,9.874356 -0.508714,4.234467 -2.275898,8.453094 -5.53928,11.19897 -2.956448,2.487615 -7.038134,3.581298 -10.8423,2.90518"
       id="path11180"
       inkscape:path-effect="#path-effect11182"
       inkscape:original-d="m 49.733037,58.403208 c 2.12767,0.241101 4.25507,0.481941 6.38221,0.722513 2.12714,0.240573 6.18177,8.99155 9.27226,13.486927 3.09049,4.495376 0.40166,6.583166 0.6021,9.874356 0.20043,3.29119 -3.69259,7.46624 -5.53928,11.19897 -1.84669,3.73272 -7.22793,1.93705 -10.8423,2.90518" />
  </g>
</svg>
